<svg xmlns="http://www.w3.org/2000/svg" viewBox="0 0 400 300" fill="none">
  <defs>
    <radialGradient id="bg-glow" cx="50%" cy="50%" r="50%">
      <stop offset="0%" stop-color="#fce7f3" stop-opacity="0.8"/>
      <stop offset="100%" stop-color="#fff5f7" stop-opacity="0"/>
    </radialGradient>
  </defs>
  <rect width="400" height="300" fill="#fff5f7"/>
  <circle cx="200" cy="150" r="130" fill="url(#bg-glow)"/>
  
        <!-- Lipstick tube -->
        <rect x="185" y="130" width="30" height="65" rx="4" fill="#1a1a1a" opacity="0.7"/>
        <!-- Lipstick color -->
        <path d="M185 130 L185 100 Q200 85 215 100 L215 130Z" fill="#be185d" opacity="0.8"/>
        <!-- Shine -->
        <line x1="195" y1="105" x2="195" y2="125" stroke="#f9a8d4" stroke-width="1.5" opacity="0.4"/>
        <!-- Kiss mark -->
        <path d="M250 140 Q255 130 260 140 Q265 150 260 155 Q255 145 250 155 Q245 150 250 140Z" fill="#be185d" opacity="0.3"/>
        
  <!-- Decorative dots -->
  <circle cx="80" cy="50" r="3" fill="#f9a8d4" opacity="0.4"/>
  <circle cx="320" cy="60" r="2" fill="#d4af37" opacity="0.3"/>
  <circle cx="75" cy="240" r="2" fill="#be185d" opacity="0.2"/>
  <circle cx="330" cy="230" r="3" fill="#f9a8d4" opacity="0.3"/>
  <circle cx="60" cy="150" r="1.5" fill="#d4af37" opacity="0.25"/>
  <circle cx="340" cy="140" r="2" fill="#be185d" opacity="0.2"/>
</svg>