<svg xmlns="http://www.w3.org/2000/svg" viewBox="0 0 400 300" fill="none">
  <defs>
    <radialGradient id="bg-glow" cx="50%" cy="50%" r="50%">
      <stop offset="0%" stop-color="#fce7f3" stop-opacity="0.8"/>
      <stop offset="100%" stop-color="#fff5f7" stop-opacity="0"/>
    </radialGradient>
  </defs>
  <rect width="400" height="300" fill="#fff5f7"/>
  <circle cx="200" cy="150" r="130" fill="url(#bg-glow)"/>
  
        <!-- Shield -->
        <path d="M200 80 L240 100 L240 160 Q240 200 200 220 Q160 200 160 160 L160 100Z" fill="#d1fae5" opacity="0.3" stroke="#be185d" stroke-width="1.5"/>
        <!-- Face inside shield -->
        <circle cx="200" cy="140" r="25" fill="#fce7f3" opacity="0.4"/>
        <!-- Check mark -->
        <path d="M188 145 L197 155 L215 132" fill="none" stroke="#be185d" stroke-width="2.5" opacity="0.6"/>
        <!-- Particles blocked -->
        <circle cx="145" cy="120" r="3" fill="#9ca3af" opacity="0.3"/>
        <circle cx="140" cy="145" r="2" fill="#9ca3af" opacity="0.25"/>
        <circle cx="255" cy="130" r="3" fill="#9ca3af" opacity="0.3"/>
        <circle cx="260" cy="155" r="2" fill="#9ca3af" opacity="0.25"/>
        
  <!-- Decorative dots -->
  <circle cx="80" cy="50" r="3" fill="#f9a8d4" opacity="0.4"/>
  <circle cx="320" cy="60" r="2" fill="#d4af37" opacity="0.3"/>
  <circle cx="75" cy="240" r="2" fill="#be185d" opacity="0.2"/>
  <circle cx="330" cy="230" r="3" fill="#f9a8d4" opacity="0.3"/>
  <circle cx="60" cy="150" r="1.5" fill="#d4af37" opacity="0.25"/>
  <circle cx="340" cy="140" r="2" fill="#be185d" opacity="0.2"/>
</svg>